<svg xmlns="http://www.w3.org/2000/svg" viewBox="0 0 660 163" width="660" height="163" font-family="ui-monospace, 'SF Mono', Menlo, monospace">
  <defs>
    <style>
      .tick-label { fill: #999; text-anchor: middle; font-size: 9px; }
      .p50-label { fill: #292929; font-size: 9px; font-weight: 600; text-anchor: middle; }
      .p50-line { stroke: #292929; stroke-width: 1; stroke-dasharray: 3 2; }
      .axis { stroke: #ddd; stroke-width: 1; }
      .caption { fill: #bbb; font-size: 8.5px; }
    </style>
  </defs>

  <!-- White background with padding -->
  <rect x="0" y="0" width="660" height="163" rx="6" fill="#fff"/>

  <!-- Explanatory text -->
  <text x="70" y="135" class="caption">Each square is one dictation.</text>
  <text x="70" y="147" class="caption">Its position shows time from releasing the hotkey to polished text at the cursor.</text>

  <!-- Tiled squares: each dictation is a 6x6 square with 1px gap -->
  <!-- Bins of 0.1s from 0.0 to 2.0, each bin 26px wide, starting at x=70 -->
  <!-- Squares tile left-to-right then bottom-to-top within each bin -->
  <!-- Max squares per row in a bin: 3 (26px / (6+1)px ≈ 3) -->
  <!-- Base y = 72 (bottom of squares area), squares grow upward -->
  <!-- square positions within bin: col0=+1, col1=+8, col2=+15 -->
  <!-- row0=y72, row1=y65, row2=y58, row3=y51 -->

  <!-- Light grey x-axis line -->
  <line x1="70" y1="79" x2="590" y2="79" class="axis"/>

  <!-- 0.3-0.4s: 1 square -->
  <rect x="149" y="72" width="6" height="6" rx="1" fill="#292929"/>

  <!-- 0.4-0.5s: 8 squares (3+3+2) -->
  <rect x="175" y="72" width="6" height="6" rx="1" fill="#292929"/>
  <rect x="182" y="72" width="6" height="6" rx="1" fill="#292929"/>
  <rect x="189" y="72" width="6" height="6" rx="1" fill="#292929"/>
  <rect x="175" y="65" width="6" height="6" rx="1" fill="#292929"/>
  <rect x="182" y="65" width="6" height="6" rx="1" fill="#292929"/>
  <rect x="189" y="65" width="6" height="6" rx="1" fill="#292929"/>
  <rect x="175" y="58" width="6" height="6" rx="1" fill="#292929"/>
  <rect x="182" y="58" width="6" height="6" rx="1" fill="#292929"/>

  <!-- 0.5-0.6s: 11 squares (3+3+3+2) -->
  <rect x="201" y="72" width="6" height="6" rx="1" fill="#292929"/>
  <rect x="208" y="72" width="6" height="6" rx="1" fill="#292929"/>
  <rect x="215" y="72" width="6" height="6" rx="1" fill="#292929"/>
  <rect x="201" y="65" width="6" height="6" rx="1" fill="#292929"/>
  <rect x="208" y="65" width="6" height="6" rx="1" fill="#292929"/>
  <rect x="215" y="65" width="6" height="6" rx="1" fill="#292929"/>
  <rect x="201" y="58" width="6" height="6" rx="1" fill="#292929"/>
  <rect x="208" y="58" width="6" height="6" rx="1" fill="#292929"/>
  <rect x="215" y="58" width="6" height="6" rx="1" fill="#292929"/>
  <rect x="201" y="51" width="6" height="6" rx="1" fill="#292929"/>
  <rect x="208" y="51" width="6" height="6" rx="1" fill="#292929"/>

  <!-- 0.6-0.7s: 1 square -->
  <rect x="227" y="72" width="6" height="6" rx="1" fill="#292929"/>

  <!-- 0.7-0.8s: 1 square -->
  <rect x="253" y="72" width="6" height="6" rx="1" fill="#292929"/>

  <!-- 0.8-0.9s: 4 squares (3+1) -->
  <rect x="279" y="72" width="6" height="6" rx="1" fill="#292929"/>
  <rect x="286" y="72" width="6" height="6" rx="1" fill="#292929"/>
  <rect x="293" y="72" width="6" height="6" rx="1" fill="#292929"/>
  <rect x="279" y="65" width="6" height="6" rx="1" fill="#292929"/>

  <!-- 1.1-1.2s: 1 square -->
  <rect x="357" y="72" width="6" height="6" rx="1" fill="#292929"/>

  <!-- 1.2-1.3s: 1 square -->
  <rect x="383" y="72" width="6" height="6" rx="1" fill="#292929"/>

  <!-- 1.4-1.5s: 1 square -->
  <rect x="435" y="72" width="6" height="6" rx="1" fill="#292929"/>

  <!-- 1.8-1.9s: 1 square -->
  <rect x="539" y="72" width="6" height="6" rx="1" fill="#292929"/>

  <!-- Tick labels -->
  <text x="70"  y="95" class="tick-label">0s</text>
  <text x="200" y="95" class="tick-label">0.5s</text>
  <text x="330" y="95" class="tick-label">1.0s</text>
  <text x="460" y="95" class="tick-label">1.5s</text>
  <text x="590" y="95" class="tick-label">2.0s</text>

  <!-- p50 marker above the 0.5-0.6 bin -->
  <line x1="213" y1="38" x2="213" y2="49" class="p50-line"/>
  <text x="213" y="34" class="p50-label">p50 = 0.57s</text>
</svg>
